<?xml version="1.0" encoding="UTF-8" standalone="no"?>
<svg
   xmlns:dc="http://purl.org/dc/elements/1.1/"
   xmlns:cc="http://creativecommons.org/ns#"
   xmlns:rdf="http://www.w3.org/1999/02/22-rdf-syntax-ns#"
   xmlns:svg="http://www.w3.org/2000/svg"
   xmlns="http://www.w3.org/2000/svg"
   xmlns:sodipodi="http://sodipodi.sourceforge.net/DTD/sodipodi-0.dtd"
   xmlns:inkscape="http://www.inkscape.org/namespaces/inkscape"
   viewBox="0 0 755.90515 474.63635"
   height="474.63635"
   width="755.90515"
   xml:space="preserve"
   id="svg2"
   version="1.1"
   sodipodi:docname="buceo_canelillo.svg"
   inkscape:version="0.92.4 5da689c313, 2019-01-14"><sodipodi:namedview
     pagecolor="#ffffff"
     bordercolor="#666666"
     borderopacity="1"
     objecttolerance="10"
     gridtolerance="10"
     guidetolerance="10"
     inkscape:pageopacity="0"
     inkscape:pageshadow="2"
     inkscape:window-width="1366"
     inkscape:window-height="721"
     id="namedview150"
     showgrid="false"
     inkscape:zoom="0.49905303"
     inkscape:cx="377.95213"
     inkscape:cy="-6.5110533"
     inkscape:window-x="0"
     inkscape:window-y="18"
     inkscape:window-maximized="1"
     inkscape:current-layer="svg2" /><metadata
     id="metadata8"><rdf:RDF><cc:Work
         rdf:about=""><dc:format>image/svg+xml</dc:format><dc:type
           rdf:resource="http://purl.org/dc/dcmitype/StillImage" /></cc:Work></rdf:RDF></metadata><defs
     id="defs6"><clipPath
       id="clipPath18"
       clipPathUnits="userSpaceOnUse"><path
         id="path16"
         d="M 0,792 H 612 V 0 H 0 Z"
         inkscape:connector-curvature="0" /></clipPath></defs><g
     transform="matrix(1.3333333,0,0,-1.3333333,-30.047866,1009.1474)"
     id="g10"><g
       id="g12"><g
         clip-path="url(#clipPath18)"
         id="g14"><g
           transform="translate(141.0527,513.647)"
           id="g20"><path
             id="path22"
             style="fill:#0079c7;fill-opacity:1;fill-rule:nonzero;stroke:none"
             d="m 0,0 v -17.103 c 0,-3.672 0.3,-5.664 0.9,-5.976 1.134,-0.624 2.827,-0.936 5.071,-0.936 3.15,0 5.707,0.99 7.675,2.97 1.968,1.981 2.952,4.555 2.952,7.723 C 16.598,-4.44 11.065,0 0,0 m 0,2.412 h 2.106 c 4.123,0 7.213,0.99 9.277,2.977 2.059,1.983 3.091,4.944 3.091,8.887 0,3.726 -0.948,6.355 -2.85,7.882 -1.903,1.527 -5.185,2.289 -9.86,2.289 L 0,24.447 Z M 10.363,1.17 c 4.387,-0.72 7.825,-2.337 10.316,-4.858 2.49,-2.517 3.732,-5.637 3.732,-9.355 0,-4.509 -1.476,-7.867 -4.429,-10.075 -2.952,-2.206 -7.47,-3.31 -13.537,-3.31 h -20.559 v 2.233 l 0.684,0.036 c 2.905,0.192 4.627,0.606 5.167,1.242 0.54,0.636 0.81,2.574 0.81,5.814 v 34.638 c 0,3.246 -0.27,5.181 -0.81,5.802 -0.54,0.621 -2.262,1.026 -5.167,1.218 l -0.684,0.072 V 26.86 H 7.417 c 4.812,0 8.485,-1.008 11.011,-3.027 2.527,-2.017 3.787,-4.948 3.787,-8.792 0,-3.121 -0.99,-5.842 -2.965,-8.158 C 17.276,4.563 14.312,2.658 10.363,1.17"
             inkscape:connector-curvature="0" /></g><g
           transform="translate(170.9009,539.6509)"
           id="g24"><path
             id="path26"
             style="fill:#0079c7;fill-opacity:1;fill-rule:nonzero;stroke:none"
             d="M 0,0 V 2.232 H 20.991 V 0 L 20.343,-0.072 C 17.39,-0.264 15.65,-0.663 15.122,-1.272 14.594,-1.881 14.33,-3.823 14.33,-7.093 v -22.791 c 0,-5.512 0.144,-9.106 0.432,-10.783 0.288,-1.678 1.008,-3.271 2.16,-4.78 2.328,-3.019 5.809,-4.528 10.442,-4.528 4.344,0 7.825,1.317 10.441,3.952 1.465,1.485 2.419,3.126 2.862,4.923 0.445,1.798 0.666,5.008 0.666,9.632 v 24.375 c 0,3.246 -0.27,5.182 -0.81,5.803 -0.54,0.621 -2.274,1.026 -5.202,1.218 L 34.673,0 V 2.232 H 51.739 V 0 l -0.684,-0.072 c -2.952,-0.192 -4.687,-0.591 -5.203,-1.2 -0.516,-0.609 -0.774,-2.551 -0.774,-5.821 v -22.323 c 0,-4.945 -0.276,-8.569 -0.828,-10.874 -0.552,-2.304 -1.656,-4.452 -3.312,-6.444 -3.121,-3.769 -7.945,-5.653 -14.475,-5.653 -13.201,0 -19.802,7.093 -19.802,21.279 v 24.015 c 0,3.246 -0.27,5.182 -0.81,5.803 -0.54,0.621 -2.263,1.026 -5.167,1.218 z"
             inkscape:connector-curvature="0" /></g><g
           transform="translate(270.3467,491.4399)"
           id="g28"><path
             id="path30"
             style="fill:#0079c7;fill-opacity:1;fill-rule:nonzero;stroke:none"
             d="m 0,0 c -4.825,-2.784 -10.441,-4.176 -16.851,-4.176 -8.185,0 -14.635,2.508 -19.352,7.525 -4.717,5.016 -7.075,11.869 -7.075,20.559 0,8.809 2.268,15.655 6.805,20.54 4.536,4.885 10.897,7.327 19.082,7.327 4.177,0 9.662,-0.888 16.455,-2.664 v -10.19 h -4.429 l -0.048,0.721 c -0.03,0.72 -0.066,1.428 -0.096,2.124 0,2.352 -1.092,4.207 -3.27,5.563 -2.185,1.356 -5.155,2.034 -8.924,2.034 -5.394,0 -9.697,-2.304 -12.907,-6.913 -3.211,-4.609 -4.819,-10.765 -4.819,-18.471 0,-7.729 1.884,-13.759 5.653,-18.092 3.768,-4.333 9.013,-6.499 15.734,-6.499 4.393,0 9.073,1.356 14.042,4.069 z"
             inkscape:connector-curvature="0" /></g><g
           transform="translate(314.5605,487.2192)"
           id="g32"><path
             id="path34"
             style="fill:#0079c7;fill-opacity:1;fill-rule:nonzero;stroke:none"
             d="m 0,0 h -38.417 v 2.232 l 0.684,0.037 c 2.904,0.191 4.627,0.606 5.167,1.242 0.54,0.635 0.81,2.574 0.81,5.814 v 34.637 c 0,3.246 -0.27,5.182 -0.81,5.803 -0.54,0.621 -2.263,1.026 -5.167,1.218 l -0.684,0.072 v 2.233 H -1.98 v -9.326 h -3.997 l -0.072,0.684 c -0.191,3.312 -0.437,5.101 -0.738,5.365 -0.3,0.264 -2.226,0.396 -5.778,0.396 h -11.63 V 29.092 l 9.757,0.036 c 2.161,0 3.487,0.114 3.979,0.342 0.492,0.228 0.786,1.363 0.882,3.403 l 0.036,0.648 h 2.88 V 21.819 h -2.88 l -0.036,0.642 c -0.096,1.81 -0.39,2.887 -0.882,3.232 -0.492,0.345 -1.818,0.519 -3.979,0.519 h -9.757 V 9.325 c 0,-2.784 0.33,-4.518 0.99,-5.202 0.66,-0.685 2.37,-1.026 5.131,-1.026 h 5.688 c 4.225,0 6.631,0.21 7.219,0.63 0.589,0.419 0.967,2.214 1.135,5.382 l 0.036,0.648 H 0 Z"
             inkscape:connector-curvature="0" /></g><g
           transform="translate(340.291,489.6206)"
           id="g36"><path
             id="path38"
             style="fill:#0079c7;fill-opacity:1;fill-rule:nonzero;stroke:none"
             d="m 0,0 c 5.036,0 8.975,2.14 11.825,6.425 2.852,4.282 4.274,10.215 4.274,17.8 0,7.586 -1.422,13.524 -4.274,17.818 -2.85,4.293 -6.789,6.442 -11.825,6.442 -5.036,0 -8.974,-2.149 -11.825,-6.442 -2.851,-4.294 -4.274,-10.232 -4.274,-17.818 0,-7.585 1.423,-13.518 4.274,-17.8 C -8.974,2.14 -5.036,0 0,0 m 0,-2.288 c -7.335,0 -13.111,2.368 -17.339,7.102 -4.228,4.735 -6.34,11.211 -6.34,19.428 0,8.218 2.112,14.694 6.34,19.428 4.228,4.735 10.004,7.102 17.339,7.102 7.336,0 13.111,-2.367 17.34,-7.102 4.227,-4.734 6.339,-11.21 6.339,-19.428 C 23.679,16.025 21.567,9.549 17.34,4.814 13.111,0.08 7.336,-2.288 0,-2.288"
             inkscape:connector-curvature="0" /></g><g
           transform="translate(583.2187,572.6836)"
           id="g40"><path
             id="path42"
             style="fill:#ed1c24;fill-opacity:1;fill-rule:nonzero;stroke:none"
             d="m 0,0 c 0,-2.875 -2.33,-5.205 -5.204,-5.205 -2.874,0 -5.204,2.33 -5.204,5.205 0,2.875 2.33,5.205 5.204,5.205 C -2.33,5.205 0,2.875 0,0"
             inkscape:connector-curvature="0" /></g><g
           transform="translate(565.2773,580.7124)"
           id="g44"><path
             id="path46"
             style="fill:#ed1c24;fill-opacity:1;fill-rule:nonzero;stroke:none"
             d="m 0,0 c 0,-2.875 -2.33,-5.205 -5.204,-5.205 -2.874,0 -5.204,2.33 -5.204,5.205 0,2.875 2.33,5.205 5.204,5.205 C -2.33,5.205 0,2.875 0,0"
             inkscape:connector-curvature="0" /></g><g
           transform="translate(589.4648,549.665)"
           id="g48"><path
             id="path50"
             style="fill:#ed1c24;fill-opacity:1;fill-rule:nonzero;stroke:none"
             d="m 0,0 c 0,-3.449 -2.797,-6.245 -6.246,-6.245 -3.449,0 -6.245,2.796 -6.245,6.245 0,3.449 2.796,6.246 6.245,6.246 C -2.797,6.246 0,3.449 0,0"
             inkscape:connector-curvature="0" /></g><g
           transform="translate(571.5234,532.1494)"
           id="g52"><path
             id="path54"
             style="fill:#ed1c24;fill-opacity:1;fill-rule:nonzero;stroke:none"
             d="m 0,0 c 0,-3.449 -2.797,-6.245 -6.246,-6.245 -3.449,0 -6.245,2.796 -6.245,6.245 0,3.449 2.796,6.246 6.245,6.246 C -2.797,6.246 0,3.449 0,0"
             inkscape:connector-curvature="0" /></g><g
           transform="translate(565.2773,556.9517)"
           id="g56"><path
             id="path58"
             style="fill:#ed1c24;fill-opacity:1;fill-rule:nonzero;stroke:none"
             d="m 0,0 c 0,-2.875 -2.33,-5.205 -5.204,-5.205 -2.874,0 -5.204,2.33 -5.204,5.205 0,2.874 2.33,5.204 5.204,5.204 C -2.33,5.204 0,2.874 0,0"
             inkscape:connector-curvature="0" /></g><g
           transform="translate(228.958,427.9492)"
           id="g60"><path
             id="path62"
             style="fill:#ed1c24;fill-opacity:1;fill-rule:nonzero;stroke:none"
             d="m 0,0 h -38.417 v 2.232 l 0.684,0.037 c 2.904,0.191 4.627,0.606 5.167,1.242 0.54,0.635 0.81,2.574 0.81,5.814 v 34.637 c 0,3.246 -0.27,5.182 -0.81,5.803 -0.54,0.621 -2.263,1.026 -5.167,1.218 l -0.684,0.072 v 2.233 H -1.98 v -9.326 h -3.997 l -0.072,0.684 c -0.192,3.312 -0.438,5.101 -0.738,5.365 -0.3,0.264 -2.226,0.396 -5.778,0.396 h -11.63 V 29.092 l 9.757,0.036 c 2.16,0 3.486,0.114 3.979,0.342 0.492,0.228 0.786,1.363 0.882,3.403 l 0.036,0.648 h 2.88 V 21.819 h -2.88 l -0.036,0.642 c -0.096,1.81 -0.39,2.887 -0.882,3.231 -0.493,0.346 -1.819,0.52 -3.979,0.52 h -9.757 V 9.325 c 0,-2.784 0.33,-4.518 0.99,-5.202 0.66,-0.685 2.37,-1.026 5.131,-1.026 h 5.688 c 4.225,0 6.631,0.21 7.219,0.63 0.588,0.419 0.966,2.214 1.135,5.382 l 0.035,0.648 H 0 Z"
             inkscape:connector-curvature="0" /></g><g
           transform="translate(294.5234,430.5234)"
           id="g64"><path
             id="path66"
             style="fill:#ed1c24;fill-opacity:1;fill-rule:nonzero;stroke:none"
             d="M 0,0 V -2.232 H -20.883 V 0 l 0.684,0.036 c 2.905,0.192 4.627,0.606 5.167,1.242 0.54,0.637 0.81,2.575 0.81,5.815 V 41.73 c 0,3.247 -0.27,5.182 -0.81,5.803 -0.54,0.621 -2.262,1.026 -5.167,1.218 l -0.684,0.072 v 2.232 H 0 V 48.823 L -0.685,48.751 C -3.613,48.559 -5.341,48.154 -5.869,47.533 -6.397,46.912 -6.661,44.977 -6.661,41.73 V 7.093 c 0,-3.24 0.264,-5.178 0.792,-5.815 0.528,-0.636 2.256,-1.05 5.184,-1.242 z"
             inkscape:connector-curvature="0" /></g><g
           transform="translate(525.7959,513.0757)"
           id="g68"><path
             id="path70"
             style="fill:#ed1c24;fill-opacity:1;fill-rule:nonzero;stroke:none"
             d="m 0,0 -9.862,14.322 8.449,4.752 C -0.57,12.451 4.322,7.478 4.322,7.478 3.181,5.02 0,0 0,0 M 42.372,-3.55 C 40.096,7.516 35.646,10.183 26.46,12.625 17.274,15.068 7.77,10.675 7.77,10.675 c -3.666,2.134 -4.151,7.136 -4.151,7.136 0,0 6.568,-1.106 9.462,-0.867 2.896,0.239 4.734,-0.039 5.282,2.587 0.548,2.625 -2.339,3.438 -4.706,3.458 -2.367,0.019 -8.606,9.013 -8.606,9.013 0,0 1.858,2.089 1.636,7.088 -0.221,5 -7.787,12.69 -7.787,12.69 0,0 -64.893,41.038 -71.175,44.773 -6.283,3.734 -15.25,0.651 -22.982,-11.911 -7.73,-12.562 -3.051,-19.176 -3.051,-19.176 0,0 -7.678,-6.25 -16.334,-3.285 -8.656,2.964 -22.539,9.917 -30.158,11.031 -7.618,1.115 -31.149,18.405 -31.149,18.405 0,0 0.863,8.936 2.47,12.605 1.609,3.669 1.948,12.872 -1.948,18.954 -3.895,6.081 -3.526,18.967 -3.526,18.967 l 2.386,2.347 c 2.386,2.348 1.94,12.084 6.446,16.255 4.506,4.172 4.566,11.536 1.958,14.188 -2.608,2.651 -11.012,4.298 -17.037,7.241 -6.027,2.943 -11.726,13.511 -21.657,21.22 -9.932,7.71 -31.814,33.666 -34.405,38.421 -2.592,4.756 -6.838,0.057 -10.3,-5.175 -3.463,-5.233 -6.956,-14.147 -2.282,-21.55 4.674,-7.403 32.898,-29.729 39.699,-34.257 6.802,-4.527 19.866,-15.155 19.866,-15.155 0,0 -0.588,-7.623 -1.432,-14.192 -0.843,-6.569 4.948,-6.09 4.948,-6.09 -2.424,-6.819 -3.834,-50.47 -3.834,-50.47 0,0 -29.517,24.967 -29.206,30.751 0.31,5.784 -3.581,12.392 -10.176,10.078 -6.594,-2.313 -12.717,-11.205 -27.176,-10.297 -14.459,0.907 -42.754,14.554 -57.97,19.413 -15.215,4.859 -16.665,-11.436 -16.694,-15.119 -0.031,-3.682 8.317,-12.167 39.563,-18.736 31.246,-6.569 54.4,-5.707 54.4,-5.707 0,0 7.83,-7.429 10.958,-10.874 3.127,-3.445 8.694,1.77 8.694,1.77 16.733,-12.237 44.007,-54.282 49.765,-57.748 5.757,-3.467 18.124,-3.042 22.575,-5.446 4.452,-2.404 19.422,-5.157 32.792,-10.528 13.371,-5.37 27.996,-18.115 27.996,-18.115 0,0 -17.631,-0.908 -22.396,-4.551 -4.763,-3.643 -7.382,-2.307 -13.17,-2.259 -5.786,0.047 -10.302,-5.439 -12.145,-5.687 -1.843,-0.248 -4.974,2.934 -4.678,6.877 0.295,3.943 -2.337,3.702 -3.152,0.552 -0.815,-3.15 1.744,-11.851 6.202,-13.466 4.458,-1.614 9.201,-0.601 10.52,-0.085 1.32,0.515 5.537,1.532 5.537,1.532 0,0 6.577,0.209 15.265,1.19 8.688,0.981 28.963,3.708 28.963,3.708 0,0 14.143,-7.481 17.79,-11.72 3.648,-4.238 12.567,-7.205 22.823,-7.289 10.258,-0.084 24.776,6.11 24.776,6.11 0,0 5.504,-2.413 7.855,-4.273 2.353,-1.861 1.544,-4.221 1.52,-7.114 -0.024,-2.893 4.141,-8.188 8.062,-11.114 3.922,-2.925 7.619,-1.114 7.637,0.99 0.017,2.104 1.602,2.88 1.602,2.88 0,0 2.61,-2.389 4.973,-2.934 2.363,-0.546 5.586,7.582 5.586,7.582 0,0 3.152,-0.552 6.308,-0.578 3.156,-0.026 6.084,4.158 6.084,4.158 l -1.005,5.795 c 0,0 1.58,0.25 3.954,1.02 2.373,0.769 4.813,9.692 2.537,20.758"
             inkscape:connector-curvature="0" /></g><g
           transform="translate(93.3271,447.2842)"
           id="g72"><path
             id="path74"
             style="fill:#ed1c24;fill-opacity:1;fill-rule:nonzero;stroke:none"
             d="M 0,0 H 20.409 L 10.28,24.267 Z m -1.158,-2.917 -3.078,-7.081 c -1.189,-2.793 -1.777,-4.656 -1.777,-5.592 0,-1.009 1.549,-1.513 4.645,-1.513 h 0.576 v -2.232 h -13.826 v 2.232 l 0.756,0.037 c 2.065,0.095 3.295,0.354 3.691,0.774 0.396,0.419 1.398,2.514 3.006,6.282 l 18.801,44.647 h 2.508 l 18.693,-44.899 c 1.464,-3.216 2.496,-5.131 3.096,-5.742 0.6,-0.613 1.776,-0.967 3.528,-1.062 l 0.829,-0.037 v -2.232 H 20.523 v 2.232 h 0.648 c 3.361,0 5.041,0.48 5.041,1.44 0,1.417 -0.504,3.301 -1.512,5.656 l -2.983,7.09 z"
             inkscape:connector-curvature="0" /></g><g
           transform="translate(177.3691,427.229)"
           id="g76"><path
             id="path78"
             style="fill:#ed1c24;fill-opacity:1;fill-rule:nonzero;stroke:none"
             d="M 0,0 -32.195,44.646 V 10.045 c 0,-3.264 0.264,-5.202 0.793,-5.814 0.527,-0.612 2.268,-1.026 5.22,-1.242 l 0.648,-0.036 V 0.72 h -16.67 v 2.233 l 0.648,0.036 c 2.952,0.216 4.693,0.63 5.221,1.242 0.528,0.612 0.792,2.55 0.792,5.814 v 34.638 c 0,3.27 -0.264,5.211 -0.786,5.82 -0.528,0.609 -2.256,1.008 -5.197,1.2 l -0.678,0.072 v 2.233 h 12.061 l 29.561,-41.37 v 32.045 c 0,3.246 -0.271,5.181 -0.811,5.802 -0.54,0.621 -2.274,1.026 -5.202,1.218 l -0.648,0.072 v 2.233 H 9.355 V 51.775 L 8.671,51.703 C 5.743,51.511 4.014,51.106 3.486,50.485 2.958,49.864 2.694,47.929 2.694,44.683 V 0 Z"
             inkscape:connector-curvature="0" /></g><g
           transform="translate(270.7959,427.9492)"
           id="g80"><path
             id="path82"
             style="fill:#ed1c24;fill-opacity:1;fill-rule:nonzero;stroke:none"
             d="m 0,0 h -38.489 v 2.232 l 0.684,0.037 c 2.904,0.191 4.626,0.606 5.166,1.242 0.54,0.635 0.81,2.574 0.81,5.814 v 34.637 c 0,3.246 -0.27,5.182 -0.81,5.803 -0.54,0.621 -2.262,1.026 -5.166,1.218 l -0.684,0.072 v 2.233 h 20.883 v -2.233 l -0.685,-0.072 c -2.928,-0.192 -4.656,-0.597 -5.184,-1.218 -0.528,-0.621 -0.793,-2.557 -0.793,-5.803 V 9.325 c 0,-3.192 0.241,-5.028 0.727,-5.509 0.486,-0.48 2.334,-0.719 5.539,-0.719 h 5.502 c 4.351,0 6.841,0.245 7.471,0.737 0.636,0.493 1.038,2.527 1.213,6.104 l 0.036,0.72 H 0 Z"
             inkscape:connector-curvature="0" /></g><g
           transform="translate(335.8574,427.9492)"
           id="g84"><path
             id="path86"
             style="fill:#ed1c24;fill-opacity:1;fill-rule:nonzero;stroke:none"
             d="m 0,0 h -38.49 v 2.232 l 0.684,0.037 c 2.905,0.191 4.627,0.606 5.167,1.242 0.54,0.635 0.81,2.574 0.81,5.814 v 34.637 c 0,3.246 -0.27,5.182 -0.81,5.803 -0.54,0.621 -2.262,1.026 -5.167,1.218 l -0.684,0.072 v 2.233 h 20.884 v -2.233 l -0.685,-0.072 c -2.929,-0.192 -4.656,-0.597 -5.185,-1.218 -0.528,-0.621 -0.792,-2.557 -0.792,-5.803 V 9.325 c 0,-3.192 0.241,-5.028 0.726,-5.509 0.486,-0.48 2.335,-0.719 5.539,-0.719 h 5.503 c 4.351,0 6.841,0.245 7.471,0.737 0.635,0.493 1.038,2.527 1.212,6.104 l 0.036,0.72 H 0 Z"
             inkscape:connector-curvature="0" /></g><g
           transform="translate(376.9385,427.9492)"
           id="g88"><path
             id="path90"
             style="fill:#ed1c24;fill-opacity:1;fill-rule:nonzero;stroke:none"
             d="m 0,0 h -38.489 v 2.232 l 0.684,0.037 c 2.905,0.191 4.626,0.606 5.166,1.242 0.54,0.635 0.811,2.574 0.811,5.814 v 34.637 c 0,3.246 -0.271,5.182 -0.811,5.803 -0.54,0.621 -2.261,1.026 -5.166,1.218 l -0.684,0.072 v 2.233 h 20.883 v -2.233 l -0.684,-0.072 c -2.929,-0.192 -4.657,-0.597 -5.186,-1.218 -0.527,-0.621 -0.792,-2.557 -0.792,-5.803 V 9.325 c 0,-3.192 0.241,-5.028 0.727,-5.509 0.486,-0.48 2.334,-0.719 5.539,-0.719 h 5.502 c 4.351,0 6.842,0.245 7.472,0.737 0.635,0.493 1.038,2.527 1.212,6.104 l 0.036,0.72 H 0 Z"
             inkscape:connector-curvature="0" /></g><g
           transform="translate(403.2051,430.6929)"
           id="g92"><path
             id="path94"
             style="fill:#ed1c24;fill-opacity:1;fill-rule:nonzero;stroke:none"
             d="m 0,0 c 5.036,0 8.975,2.14 11.825,6.425 2.851,4.282 4.274,10.214 4.274,17.8 0,7.586 -1.423,13.524 -4.274,17.817 -2.85,4.294 -6.789,6.442 -11.825,6.442 -5.036,0 -8.975,-2.148 -11.825,-6.442 -2.852,-4.293 -4.274,-10.231 -4.274,-17.817 0,-7.586 1.422,-13.518 4.274,-17.8 C -8.975,2.14 -5.036,0 0,0 m 0,-2.288 c -7.335,0 -13.111,2.368 -17.34,7.102 -4.227,4.735 -6.339,11.211 -6.339,19.428 0,8.217 2.112,14.694 6.339,19.428 4.229,4.735 10.005,7.102 17.34,7.102 7.335,0 13.111,-2.367 17.34,-7.102 4.227,-4.734 6.339,-11.211 6.339,-19.428 C 23.679,16.025 21.567,9.549 17.34,4.814 13.111,0.08 7.335,-2.288 0,-2.288"
             inkscape:connector-curvature="0" /></g><g
           transform="translate(128.0249,419.3403)"
           id="g96"><path
             id="path98"
             style="fill:#ed1c24;fill-opacity:1;fill-rule:nonzero;stroke:none"
             d="m 0,0 c 0,0 -23.521,-9.769 -34.228,-9.769 -16.381,0 -29.165,5.281 -38.351,15.841 -9.186,10.561 -13.779,25.261 -13.779,44.101 0,18.781 3.92,33.788 11.746,45.022 7.825,11.234 18.313,16.85 31.462,16.85 9.186,0 16.427,-1.653 21.751,-4.959 5.309,-3.305 7.971,-7.825 7.971,-13.559 0.074,-1.696 0.161,-3.423 0.234,-5.178 l 0.117,-1.755 h 10.796 v 24.836 c -16.559,4.33 -29.928,6.495 -40.108,6.495 -19.951,0 -35.456,-5.953 -46.514,-17.86 -11.057,-11.906 -16.586,-28.595 -16.586,-50.068 0,-21.18 5.748,-37.884 17.244,-50.112 11.497,-12.228 27.222,-18.342 47.172,-18.342 15.248,0 28.626,3.288 40.195,9.754 3.847,1.437 12.321,5.029 22.205,6.59 1.745,3.093 0.756,6.321 -2.638,7.508 C 10.53,4.295 4.534,1.85 0,0"
             inkscape:connector-curvature="0" /></g><g
           transform="translate(465.9873,462.4062)"
           id="g100"><path
             id="path102"
             style="fill:#0079c7;fill-opacity:1;fill-rule:nonzero;stroke:none"
             d="m 0,0 c 0,0 0.653,-8.96 -2.528,-10.778 -3.182,-1.818 -11.34,2.174 -15.28,-0.25 -3.939,-2.424 -1.363,-3.636 4.394,-4.545 5.758,-0.909 11.06,-1.061 10,-3.939 -1.061,-2.879 -7.879,-14.242 -3.788,-15.151 4.091,-0.909 6.818,13.636 10.454,11.666 3.637,-1.97 9.835,-11.488 13.938,-7.424 1.986,1.966 -10.454,7.575 -7.726,12.121 2.727,4.545 9.895,-5.286 11.666,-2.879 3.365,4.575 -6.126,10.304 -10.066,10.158 C 8.88,-11.102 5.547,-8.587 5.967,-3.334 6.452,2.734 2.104,5.583 0,0"
             inkscape:connector-curvature="0" /></g></g></g></g></svg>